HIERARCHY
ROOT hip
{
  OFFSET 0 0 0
  CHANNELS 6 Xposition Yposition Zposition Zrotation Yrotation Xrotation
  JOINT abdomen
  {
    OFFSET 0 20.6881 -0.73152
    CHANNELS 3 Zrotation Xrotation Yrotation
    JOINT chest
    {
      OFFSET 0 11.7043 -0.48768
      CHANNELS 3 Zrotation Xrotation Yrotation
      JOINT neck
      {
        OFFSET 0 22.1894 -2.19456
        CHANNELS 3 Zrotation Xrotation Yrotation
        JOINT head
        {
          OFFSET -0.24384 7.07133 1.2192
          CHANNELS 3 Zrotation Xrotation Yrotation
          JOINT leftEye
          {
            OFFSET 4.14528 8.04674 8.04672
            CHANNELS 3 Zrotation Xrotation Yrotation
            End Site
            {
              OFFSET 1 0 0
            }
          }
          JOINT rightEye
          {
            OFFSET -3.6576 8.04674 8.04672
            CHANNELS 3 Zrotation Xrotation Yrotation
            End Site
            {
              OFFSET 1 0 0
            }
          }
        }
      }
      JOINT rCollar
      {
        OFFSET -2.68224 19.2634 -4.8768
        CHANNELS 3 Zrotation Xrotation Yrotation
        JOINT rShldr
        {
          OFFSET -8.77824 -1.95073 1.46304
          CHANNELS 3 Zrotation Xrotation Yrotation
          JOINT rForeArm
          {
            OFFSET -28.1742 -1.7115 0.48768
            CHANNELS 3 Zrotation Xrotation Yrotation
            JOINT rHand
            {
              OFFSET -22.5879 0.773209 7.07136
              CHANNELS 3 Zrotation Xrotation Yrotation
              JOINT rThumb1
              {
                OFFSET -1.2192 -0.487915 3.41376
                CHANNELS 3 Zrotation Xrotation Yrotation
                JOINT rThumb2
                {
                  OFFSET -3.37035 -0.52449 3.41376
                  CHANNELS 3 Zrotation Xrotation Yrotation
                  End Site
                  {
                    OFFSET -1.78271 -1.18214 1.43049
                  }
                }
              }
              JOINT rIndex1
              {
                OFFSET -7.75947 0.938293 5.60832
                CHANNELS 3 Zrotation Xrotation Yrotation
                JOINT rIndex2
                {
                  OFFSET -2.54057 -0.884171 1.56538
                  CHANNELS 3 Zrotation Xrotation Yrotation
                  End Site
                  {
                    OFFSET -1.62519 -0.234802 1.16502
                  }
                }
              }
              JOINT rMid1
              {
                OFFSET -8.24714 1.18213 3.41376
                CHANNELS 3 Zrotation Xrotation Yrotation
                JOINT rMid2
                {
                  OFFSET -3.10165 -0.590103 1.0647
                  CHANNELS 3 Zrotation Xrotation Yrotation
                  End Site
                  {
                    OFFSET -2.48547 -0.328903 0.83742
                  }
                }
              }
              JOINT rRing1
              {
                OFFSET -8.82822 0.546677 1.51678
                CHANNELS 3 Zrotation Xrotation Yrotation
                JOINT rRing2
                {
                  OFFSET -2.60934 -0.819778 -0.0198488
                  CHANNELS 3 Zrotation Xrotation Yrotation
                  End Site
                  {
                    OFFSET -2.33842 -0.294052 0.168128
                  }
                }
              }
              JOINT rPinky1
              {
                OFFSET -8.27202 -0.0477905 -0.4584
                CHANNELS 3 Zrotation Xrotation Yrotation
                JOINT rPinky2
                {
                  OFFSET -1.82734 -0.647385 -0.700984
                  CHANNELS 3 Zrotation Xrotation Yrotation
                  End Site
                  {
                    OFFSET -1.69225 -0.51767 -0.607171
                  }
                }
              }
            }
          }
        }
      }
      JOINT lCollar
      {
        OFFSET 2.68224 19.2634 -4.8768
        CHANNELS 3 Zrotation Xrotation Yrotation
        JOINT lShldr
        {
          OFFSET 8.77824 -1.95073 1.46304
          CHANNELS 3 Zrotation Xrotation Yrotation
          JOINT lForeArm
          {
            OFFSET 28.1742 -1.7115 0.48768
            CHANNELS 3 Zrotation Xrotation Yrotation
            JOINT lHand
            {
              OFFSET 22.5879 0.773209 7.07136
              CHANNELS 3 Zrotation Xrotation Yrotation
              JOINT lThumb1
              {
                OFFSET 1.2192 -0.487915 3.41376
                CHANNELS 3 Zrotation Xrotation Yrotation
                JOINT lThumb2
                {
                  OFFSET 3.37035 -0.52449 3.41376
                  CHANNELS 3 Zrotation Xrotation Yrotation
                  End Site
                  {
                    OFFSET 1.78271 -1.18214 1.43049
                  }
                }
              }
              JOINT lIndex1
              {
                OFFSET 7.75947 0.938293 5.60832
                CHANNELS 3 Zrotation Xrotation Yrotation
                JOINT lIndex2
                {
                  OFFSET 2.54057 -0.884171 1.56538
                  CHANNELS 3 Zrotation Xrotation Yrotation
                  End Site
                  {
                    OFFSET 1.62519 -0.234802 1.16502
                  }
                }
              }
              JOINT lMid1
              {
                OFFSET 8.24714 1.18213 3.41376
                CHANNELS 3 Zrotation Xrotation Yrotation
                JOINT lMid2
                {
                  OFFSET 3.10165 -0.590103 1.0647
                  CHANNELS 3 Zrotation Xrotation Yrotation
                  End Site
                  {
                    OFFSET 2.48547 -0.328903 0.83742
                  }
                }
              }
              JOINT lRing1
              {
                OFFSET 8.82822 0.546677 1.51678
                CHANNELS 3 Zrotation Xrotation Yrotation
                JOINT lRing2
                {
                  OFFSET 2.60934 -0.819778 -0.0198488
                  CHANNELS 3 Zrotation Xrotation Yrotation
                  End Site
                  {
                    OFFSET 2.33842 -0.294052 0.168128
                  }
                }
              }
              JOINT lPinky1
              {
                OFFSET 8.27202 -0.0477905 -0.4584
                CHANNELS 3 Zrotation Xrotation Yrotation
                JOINT lPinky2
                {
                  OFFSET 1.82734 -0.647385 -0.700984
                  CHANNELS 3 Zrotation Xrotation Yrotation
                  End Site
                  {
                    OFFSET 1.69225 -0.51767 -0.607171
                  }
                }
              }
            }
          }
        }
      }
    }
  }
  JOINT rButtock
  {
    OFFSET -8.77824 4.35084 1.2192
    CHANNELS 3 Zrotation Xrotation Yrotation
    JOINT rThigh
    {
      OFFSET 0 -1.70687 -2.19456
      CHANNELS 3 Zrotation Xrotation Yrotation
      JOINT rShin
      {
        OFFSET 0 -36.8199 0.73152
        CHANNELS 3 Zrotation Xrotation Yrotation
        JOINT rFoot
        {
          OFFSET 0.73152 -45.1104 -5.12064
          CHANNELS 3 Zrotation Xrotation Yrotation
          End Site
          {
            OFFSET -1.1221 -3.69964 12.103
          }
        }
      }
    }
  }
  JOINT lButtock
  {
    OFFSET 8.77824 4.35084 1.2192
    CHANNELS 3 Zrotation Xrotation Yrotation
    JOINT lThigh
    {
      OFFSET 0 -1.70687 -2.19456
      CHANNELS 3 Zrotation Xrotation Yrotation
      JOINT lShin
      {
        OFFSET 0 -36.8199 0.73152
        CHANNELS 3 Zrotation Xrotation Yrotation
        JOINT lFoot
        {
          OFFSET -0.73152 -45.1104 -5.12064
          CHANNELS 3 Zrotation Xrotation Yrotation
          End Site
          {
            OFFSET 1.1221 -3.69964 12.103
          }
        }
      }
    }
  }
}
MOTION
Frames:	5
Frame Time:	0.03333
-5.4745 68.8285 -10.1884 177.196834 -52.302592 -171.14375 -13.768983 6.794803 64.228002 -4.037223 -10.619845 -76.56992 -10.149481 29.955703 -60.720859 30.554096 -5.713045 6.758759 26.172762 0.365131 1.570654 -5.052951 0.897347 -20.127808 -148.290862 17.04702 155.836837 88.070049 -51.882235 120.114996 -172.068909 62.820249 97.040004 162.13748 -27.510022 139.25211 -177.63468 -13.839493 91.588828 52.313106 -71.199919 33.618819 78.778837 -72.153561 47.549086 -86.240126 66.091342 70.069326 -161.394787 12.947044 140.856758 140.760104 -73.919919 116.068384 -87.417581 -72.737301 -95.828558 -141.621971 -40.314329 -164.644606 -155.225912 46.622895 -143.72641 -46.770479 -43.006703 -50.852919 -5.62615 -18.162534 0.359856 -70.467413 6.881118 11.097676 -177.682602 -7.899754 -101.080505 -163.693693 -26.395326 -143.722678 160.178536 1.622301 -85.524065 3.716293 -36.358233 -16.200662 142.704124 11.302436 -124.251106 -12.983959 -11.296522 15.825242 1.077703 -12.981808 2.036526 33.940043 55.6019 -27.778668 76.277946 69.611194 -91.52996 73.417754 77.913691 -90.190786 -12.452107 36.129204 -0.977036 17.477293 -65.73271 17.009314 171.753338 76.88246 5.777066 165.233301 7.195071 -0.0 28.326965 75.583087 67.867427 -12.97135 -9.957828 -88.244121 39.757543 9.518492 19.114819 -33.896326 12.995172 -0.0 9.337772 32.986711 -55.863653 -174.915116 -27.729928 -84.213811
-5.4301 68.7235 -10.6189 177.03295 -53.150898 -170.910122 -11.806628 8.316279 1.23818 5.702353 -9.805366 -12.866723 -9.841077 28.426217 -52.835245 28.295476 -9.356078 -0.311148 26.348967 0.506185 2.162218 -5.585523 0.906481 -18.422486 -1.270999 18.018197 5.535825 -110.22932 -13.282235 170.672509 100.360008 29.461688 -97.584351 -145.396969 70.774686 122.163295 -94.931186 40.20167 53.189112 176.843527 -41.29127 81.742904 -127.836535 29.828869 90.428051 -165.308028 -3.006095 101.59301 83.762625 -83.010606 61.691705 0.985716 18.414797 -3.06398 -154.319295 4.965063 178.227872 0.486896 20.600866 -3.20985 -7.794793 -16.161872 -11.251789 0.33712 -0.545394 6.851554 153.92465 -6.631089 -159.654813 -133.340661 -13.847961 -179.25261 25.095158 -5.084412 -35.372441 -2.27779 0.655173 -2.81822 78.779823 35.01803 -42.772334 -33.238492 -32.760037 -12.17519 -4.638304 -22.539304 17.003224 -89.853571 -56.126839 -35.654778 40.555658 50.98805 -29.130136 162.805561 -7.091191 -143.943785 147.632427 -1.299908 -177.329024 -2.462353 23.800338 -3.622771 23.072952 -25.832068 22.17965 8.602682 -48.058999 30.755959 0.013965 -0.779291 1.026696 -42.799001 -63.01164 -39.896282 21.578124 73.679101 51.198134 136.548295 -82.66336 42.793758 -102.548821 59.951442 -39.371622 92.952574 57.799447 -92.499061 -13.40905 -38.975158 67.569557 73.14494 -35.042672 138.624507
-5.4933000000000005 68.6635 -11.1846 177.300085 -50.084763 -171.712318 -9.670418 5.652158 -101.734709 5.826448 4.979714 89.542005 -10.707717 28.189102 -53.844335 28.767158 -7.149946 1.116609 24.690387 1.119733 5.112934 -0.78485 0.100771 -14.63269 -144.735775 27.989649 152.006234 -16.580298 -22.65851 46.582053 18.829095 49.748498 -90.719714 167.653729 -14.816654 142.337025 -178.85589 -14.864471 91.263371 -14.777615 -41.232004 -0.687887 -90.023839 39.236808 58.396166 -165.463429 -14.312729 96.413595 -170.831755 -26.968698 148.1145 11.836741 -44.346912 -6.987224 -86.991348 -72.046433 -95.766499 15.565724 25.698862 -11.328146 17.088059 43.752395 8.154544 -142.464615 -17.326933 -131.269078 150.342973 8.207103 -156.087405 57.119427 7.659526 -14.287867 97.890472 -32.172456 125.221391 -28.134498 -48.538149 -19.473549 93.686533 33.561586 -52.585014 76.856808 3.313674 -65.564193 1.329704 -1.195868 11.337715 0.036242 12.571675 -4.692885 165.439198 -6.203449 -145.730441 52.384505 63.951688 -48.238426 3.615809 -2.309431 -4.961497 150.140537 3.102423 174.860372 126.725071 -29.525269 115.023135 88.424405 -33.976288 80.205913 -9.16439 -0.91875 -4.518042 -21.462164 -65.328017 -19.835611 0.579823 77.260964 -83.362633 159.684858 -11.443607 -85.997856 42.347138 12.630917 20.622716 -36.352353 11.65627 -105.350566 -38.356816 9.551591 146.443287 -141.192544 6.741011 5.111378
-5.6239 68.83789999999999 -11.741200000000001 177.629403 -48.389287 -172.231665 -11.964393 7.940513 -0.0 6.10396 -8.581727 -10.916635 -10.461885 36.191732 -103.57184 33.102249 18.344872 44.523396 22.955144 1.672993 8.225957 -0.78936 0.089893 -12.993597 4.638362 -9.191474 -0.891379 62.540778 18.752111 -14.172809 88.492997 -25.83135 73.089603 -155.46718 64.595103 131.378587 3.192595 -4.948832 -1.782455 -5.699856 0.25672 0.968676 -93.009539 39.334762 62.947472 -81.418717 38.23482 61.10429 -0.662141 -13.352159 -4.996921 6.925248 1.023995 4.11533 -153.081182 -1.449206 -178.628162 -1.85416 63.305834 4.394823 12.83837 12.560094 2.536823 24.731251 76.192311 -2.650719 -2.230975 -0.431576 -3.060937 38.951504 80.466693 -114.119828 53.191582 1.258313 16.336763 -32.350436 -50.851076 -23.653942 1.527532 0.743519 -3.797156 39.655768 28.778678 -22.759899 128.928864 29.949181 -111.725118 19.110714 42.692947 -7.388049 5.423801 1.504769 4.414678 177.060144 -28.025806 -139.177803 6.391497 -43.793963 9.332979 -20.955737 62.003362 16.273136 147.185675 -3.634636 131.701455 96.197306 -40.710091 79.66796 -2.294223 -2.108639 0.0 -32.455603 -63.640318 -103.812536 -84.053269 17.233372 -81.318301 -90.002171 22.331071 -172.301542 -100.453519 55.742866 -37.625967 89.854404 52.131559 -179.817699 34.168098 -14.907066 -159.545512 31.089239 -20.111374 82.483855
-5.786899999999999 68.8778 -12.2374 177.823018 -47.736356 -172.402104 -9.630063 5.475459 -79.715309 6.636163 2.611691 67.938724 11.921817 31.923699 100.056178 -29.712545 16.791606 -156.143849 22.105012 1.768566 9.036119 -2.297387 0.271879 -13.496532 -125.91114 53.684773 132.62947 178.084082 -0.918938 118.003746 105.725991 -54.664599 31.838729 176.207948 10.035889 145.888725 -0.953547 0.293269 -0.901035 -128.935421 -16.849258 109.21568 -107.931934 36.61926 77.589085 4.56996 0.815146 6.559021 -144.896752 40.135934 130.474758 -168.345885 -2.84537 144.317951 -7.718779 5.128878 1.515865 16.369471 23.855887 1.985448 59.744465 83.389681 -9.432445 -34.035042 -30.636422 -41.358449 -6.778315 -26.855628 1.704391 106.606711 2.261281 161.742612 1.609866 13.281892 73.544258 -155.97294 -35.916663 -139.258558 1.137531 -0.038567 -3.389116 27.510045 20.382798 -10.283775 162.524005 -46.18656 -134.474726 -86.837073 -65.864571 -29.704815 162.343699 6.006212 -145.680176 160.181969 -3.121314 -148.414066 3.938763 -14.23242 -0.696035 76.600176 -71.40943 100.13116 155.34536 15.507106 138.316702 152.592321 -11.005712 127.841263 173.479018 78.733813 4.7556 165.880653 9.87752 2.188955 -23.668185 76.49715 -65.334948 29.743346 66.222597 66.734329 41.427436 12.967111 20.383486 -36.00175 11.714439 -61.037064 -36.382035 29.067453 -91.65713 114.567067 8.146347 151.744671
